<svg xmlns="http://www.w3.org/2000/svg" viewBox="0 0 512 512">
  <defs>
    <linearGradient id="bg" x1="0%" x2="100%" y1="0%" y2="100%">
      <stop offset="0%" stop-color="#d9f3ff"/>
      <stop offset="100%" stop-color="#58b7e7"/>
    </linearGradient>
  </defs>
  <rect width="512" height="512" rx="120" fill="url(#bg)"/>
  <rect x="88" y="88" width="336" height="336" rx="72" fill="#ffffff" fill-opacity="0.92"/>
  <path d="M180 190c0-32 22-52 56-52 21 0 40 8 54 24l-22 24c-8-9-18-14-30-14-14 0-24 7-24 20 0 14 11 20 32 25 36 8 64 20 64 60 0 38-31 62-74 62-31 0-56-10-74-30l22-24c13 14 31 22 50 22 18 0 30-8 30-22 0-16-12-21-38-27-35-8-46-28-46-48zm108 124 24-28c10 9 21 13 34 13 14 0 24-5 24-14 0-10-8-14-30-19l-10-2 0-26 6 1c24 5 44-2 44-17 0-10-8-16-22-16-13 0-24 5-34 14l-20-25c16-15 35-23 58-23 39 0 64 20 64 48 0 19-11 33-28 41 18 8 32 22 32 46 0 35-32 57-72 57-28 0-52-9-70-25z" fill="#2a8ebf"/>
</svg>
